<?xml version="1.0" encoding="UTF-8"?>
<svg width="24px" height="22px" viewBox="0 0 24 22" version="1.1" xmlns="http://www.w3.org/2000/svg" xmlns:xlink="http://www.w3.org/1999/xlink">
    <title>Kakao</title>
    <g id="공통(GnB)" stroke="none" stroke-width="1" fill="none" fill-rule="evenodd">
        <g id="mob-web_footer" transform="translate(-68.000000, -343.000000)" fill="#BBBBBB" fill-rule="nonzero">
            <g id="SNS" transform="translate(20.000000, 342.000000)">
                <g id="Kakao" transform="translate(48.000000, 1.000000)">
                    <path d="M12,0 C5.37253846,0 0,4.20794248 0,9.39861311 C0,12.7544911 2.24607692,15.6991224 5.62476923,17.3618746 C5.44096154,17.9915817 4.44357692,21.4129061 4.40388462,21.6816835 C4.40388462,21.6816835 4.38,21.8836391 4.51165385,21.9606618 C4.64330769,22.0376846 4.79815385,21.9778544 4.79815385,21.9778544 C5.17569231,21.9254744 9.17619231,19.1340863 9.86861538,18.64937 C10.5603462,18.74668 11.2726154,18.7972262 12,18.7972262 C18.6274615,18.7972262 24,14.5893984 24,9.39861311 C24,4.20794248 18.6274615,0 12,0 Z" id="Path"></path>
                </g>
            </g>
        </g>
    </g>
</svg>