<svg width="84" height="24" viewBox="0 0 84 24" fill="none" xmlns="http://www.w3.org/2000/svg">
<g clip-path="url(#clip0_305_640)">
<path d="M53.7318 16.944V8.0445H51.8703V9.5235L51.5538 9.132C50.9178 8.376 50.1198 7.953 49.0248 7.953C46.6278 7.953 44.6763 9.924 44.6763 12.426C44.6763 14.928 46.4898 16.944 48.8043 16.944C50.1243 16.944 51.1458 16.194 51.6243 15.498L51.8688 15.141V16.9455H53.7303L53.7318 16.944ZM49.2468 15.1425C47.7393 15.1425 46.5603 13.983 46.5603 12.426C46.5603 10.869 47.7408 9.6915 49.2468 9.6915C50.7528 9.6915 51.8493 10.911 51.8493 12.426C51.8493 13.941 50.7438 15.1425 49.2468 15.1425Z" fill="#A0A6B1"/>
<path d="M34.6158 14.859C33.6123 15.1845 32.7933 15.1725 32.3028 14.829C32.0028 14.6175 31.8363 14.289 31.8363 13.9035V9.93451H34.4268L34.4388 8.03401H31.8363V5.46451L29.9058 6.02251V13.9215C29.9058 14.9835 30.2688 15.819 30.9543 16.3395C31.8138 16.9875 33.1083 17.121 34.6158 16.716V14.859Z" fill="#A0A6B1"/>
<path d="M12.8297 5.39999H3.4502V7.30649H7.2002V16.9335H9.2162V7.30649H12.8297V5.39999Z" fill="#A0A6B1"/>
<path d="M28.6561 14.3595C28.6561 13.0395 27.7666 12.198 25.8586 11.712C25.6096 11.6505 25.3726 11.5995 25.1116 11.544C24.1021 11.3295 23.3041 11.16 23.3041 10.491C23.3041 9.89998 23.9401 9.50248 24.8866 9.50248C25.8331 9.50248 26.9176 9.84148 28.2301 10.509V8.71198C27.2971 8.18248 26.0806 7.88098 24.8866 7.88098C22.7011 7.88098 21.2881 8.91148 21.2881 10.5075C21.2881 11.8455 22.1761 12.5775 24.3526 13.035C25.8136 13.3395 26.6581 13.6485 26.6581 14.325C26.6581 15.0015 25.8721 15.279 25.0921 15.279C23.8846 15.279 22.4266 14.6325 21.5446 14.0145V15.903C22.6936 16.5885 23.8861 16.935 25.0921 16.935C26.8156 16.935 28.6576 16.2585 28.6576 14.3595H28.6561Z" fill="#A0A6B1"/>
<path d="M42.3811 8.04449L39.9391 16.053L37.4791 8.04449H35.4121L38.3671 16.9335H41.4931L44.4676 8.04449H42.3811Z" fill="#A0A6B1"/>
<path d="M57.3962 5.39999H55.4492V16.944H57.3962V5.39999Z" fill="#A0A6B1"/>
<path d="M61.092 5.39999H59.145V16.944H61.092V5.39999Z" fill="#A0A6B1"/>
<path d="M78.4354 8.04449L76.0069 14.697L73.4374 8.04449H71.4019L75.0259 16.9395L75.0049 16.992L73.6714 20.4555H75.6454L80.4574 8.04449H78.4354Z" fill="#A0A6B1"/>
<path d="M18.2764 14.0115C17.8474 14.5305 17.2399 14.949 16.5739 15.141C15.2869 15.507 14.1244 15.057 13.5409 13.9545L13.4614 13.8075L13.6219 13.7625L20.2654 11.844C20.2249 11.358 20.0719 10.878 19.7989 10.3725C19.0219 8.84248 17.4769 7.89148 15.7684 7.89148C15.3484 7.89148 14.9329 7.94998 14.5324 8.06548C12.1384 8.75848 10.7539 11.2755 11.4484 13.677C12.1384 16.0665 14.6419 17.451 17.0449 16.7655C18.2854 16.407 19.6699 15.369 20.2009 14.01H18.2779L18.2764 14.0115ZM13.1119 12.354C13.0174 11.3175 13.4464 10.0515 14.9269 9.61048C16.8559 9.04948 17.7409 10.3485 18.0349 10.9365L18.0484 10.9635L13.1164 12.387L13.1134 12.3555L13.1119 12.354Z" fill="#A0A6B1"/>
<path d="M69.3843 14.0115C68.9553 14.5305 68.3478 14.949 67.6818 15.141C66.3948 15.507 65.2323 15.057 64.6488 13.9545L64.5693 13.8075L64.7298 13.7625L71.3733 11.844C71.3328 11.358 71.1798 10.878 70.9068 10.3725C70.1298 8.84248 68.5848 7.89148 66.8763 7.89148C66.4563 7.89148 66.0408 7.94998 65.6403 8.06548C63.2463 8.75848 61.8618 11.2755 62.5563 13.677C63.2463 16.0665 65.7498 17.451 68.1528 16.7655C69.3933 16.407 70.7778 15.369 71.3088 14.01H69.3858L69.3843 14.0115ZM64.2198 12.354C64.1253 11.3175 64.5543 10.0515 66.0348 9.61048C67.9638 9.04948 68.8488 10.3485 69.1428 10.9365L69.1563 10.9635L64.2243 12.387L64.2213 12.3555L64.2198 12.354Z" fill="#A0A6B1"/>
</g>
<defs>
<clipPath id="clip0_305_640">
<rect width="77.007" height="15.0555" fill="white" transform="translate(3.4502 5.39999)"/>
</clipPath>
</defs>
</svg>
