<?xml version="1.0" encoding="UTF-8"?>
<svg width="26px" height="22px" viewBox="0 0 26 22" version="1.1" xmlns="http://www.w3.org/2000/svg" xmlns:xlink="http://www.w3.org/1999/xlink">
    <title>Blog</title>
    <g id="공통(GnB)" stroke="none" stroke-width="1" fill="none" fill-rule="evenodd">
        <g id="mob-web_footer" transform="translate(-116.000000, -343.000000)" fill="#BBBBBB">
            <g id="SNS" transform="translate(20.000000, 342.000000)">
                <g id="Blog" transform="translate(96.000000, 1.000000)">
                    <path d="M21.893563,0 C24.1610059,0 26,1.85588277 26,4.14517981 L26,13.9786626 C26,16.2680853 24.1610059,18.1239053 21.893563,18.1239053 L15.767,18.123 L13.6756285,21.547922 C13.6756285,21.547922 13.6655077,21.5705447 13.6382816,21.6079695 L13.605095,21.6500386 C13.4820831,21.8585449 13.258425,22 12.9995314,22 C12.7398257,22 12.5144808,21.8564084 12.3922811,21.6457654 C12.3581232,21.6032063 12.3369679,21.5697317 12.328525,21.5556543 L12.324309,21.5484247 L10.232,18.123 L4.10637454,18.1239053 C1.83811943,18.1239053 5.68434189e-14,16.2680853 5.68434189e-14,13.9786626 L5.68434189e-14,4.14517981 C5.68434189e-14,1.85588277 1.83811943,0 4.10637454,0 L21.893563,0 Z M18.0357617,9.67989945 C18.0357617,9.67989945 18.0108465,12.0549116 20.2257486,12.0549116 C20.2257486,12.0549116 21.1289398,12.0921135 21.6234865,11.4449142 L21.6234865,11.8187552 C21.6234865,11.8187552 21.735378,12.9884772 20.6090285,12.9884772 L20.2257486,12.9884772 L20.2257486,14.4069963 L20.870303,14.4066609 C21.1258361,14.4001624 23.1701008,14.2741566 23.1701008,11.9056014 L23.1701008,7.3879631 L21.6234865,7.3879631 L21.6234865,7.8357051 C21.6234865,7.8357051 21.1659246,7.2262104 20.2877231,7.2262104 C20.2877231,7.2262104 18.0357617,7.13062927 18.0357617,9.67989945 Z M4.42118264,5.29680368 L2.82902461,5.29680368 L2.82902461,11.9675626 L4.43755091,11.9675626 L4.43755091,11.4449142 C4.43755091,11.4449142 4.81689498,12.1340912 5.77425145,12.1340912 C5.77425145,12.1340912 8.01751684,12.0510155 8.01751684,9.64489703 C8.01751684,9.64489703 7.93492579,7.20547288 5.77425145,7.20547288 C5.77425145,7.20547288 5.06460565,7.20547288 4.42118264,7.8357051 L4.42118264,5.29680368 Z M14.5409603,7.2262104 L14.5114251,7.22681772 C14.2224936,7.23590534 11.9110414,7.38097596 11.9110414,9.69680368 C11.9110414,9.69680368 11.8259514,12.1340912 14.5409603,12.1340912 C14.5409603,12.1340912 17.2315418,12.1301323 17.2315418,9.69680368 L17.2315615,9.64249387 C17.2247076,9.28005135 17.0741121,7.2262104 14.5409603,7.2262104 Z M8.52893162,5.14755634 L8.52893162,6.69099374 C8.52893162,6.69099374 9.25532053,6.65775086 9.25532053,8.01869805 L9.25532053,11.9675626 L10.7894399,11.9675626 L10.7891493,7.59164464 C10.7807506,7.20573596 10.6371353,5.14755634 8.52893162,5.14755634 Z M5.42370804,8.66803393 C5.98841342,8.66803393 6.44641265,9.12872119 6.44641265,9.69680368 C6.44641265,10.2652004 5.98841342,10.7259505 5.42370804,10.7259505 C4.85906514,10.7259505 4.40056611,10.2652004 4.40056611,9.69680368 C4.40056611,9.12872119 4.85906514,8.66803393 5.42370804,8.66803393 Z M14.5414601,8.66803393 C15.106103,8.66803393 15.5642272,9.12872119 15.5642272,9.69680368 C15.5642272,10.2652004 15.106103,10.7259505 14.5414601,10.7259505 C13.9766298,10.7259505 13.5183182,10.2652004 13.5183182,9.69680368 C13.5183182,9.12872119 13.9766298,8.66803393 14.5414601,8.66803393 Z M20.6721276,8.66803393 C21.2367705,8.66803393 21.6948946,9.12872119 21.6948946,9.69680368 C21.6948946,10.2652004 21.2367705,10.7259505 20.6721276,10.7259505 C20.1070473,10.7259505 19.649423,10.2652004 19.649423,9.69680368 C19.649423,9.12872119 20.1070473,8.66803393 20.6721276,8.66803393 Z" id="Combined-Shape"></path>
                </g>
            </g>
        </g>
    </g>
</svg>